<!--?xml version="1.0" standalone="no"?-->
              <svg id="sw-js-blob-svg" viewBox="0 0 100 100" xmlns="http://www.w3.org/2000/svg" version="1.1">
                    <defs> 
                        <linearGradient id="sw-gradient" x1="0" x2="1" y1="1" y2="0">
                            <stop id="stop1" stop-color="rgba(255, 147.544, 96.687, 1)" offset="0%"></stop>
                            <stop id="stop2" stop-color="rgba(255, 218, 185, 1)" offset="100%"></stop>
                        </linearGradient>
                    </defs>
                <path fill="url(#sw-gradient)" d="M22.2,-34.2C27,-31.3,28.1,-22.3,32,-14.4C35.9,-6.5,42.6,0.3,41.8,6C40.9,11.7,32.6,16.3,26.4,22C20.2,27.7,16.1,34.4,10.5,36.2C4.9,38.1,-2.2,35.1,-10.4,33.5C-18.5,32,-27.6,31.9,-31.3,27.3C-35,22.7,-33.2,13.6,-32.1,6C-31,-1.6,-30.6,-7.7,-29,-14.1C-27.4,-20.4,-24.5,-27.1,-19.5,-29.9C-14.5,-32.7,-7.2,-31.6,0.7,-32.7C8.6,-33.8,17.3,-37.1,22.2,-34.2Z" width="100%" height="100%" transform="translate(50 50)" stroke-width="0" style="transition: all 0.3s ease 0s;"></path>
              </svg>